<svg xmlns="http://www.w3.org/2000/svg" viewBox="0 0 448 512"><!--! Font Awesome Pro 6.4.0 by @fontawesome - https://fontawesome.com License - https://fontawesome.com/license (Commercial License) Copyright 2023 Fonticons, Inc. --><path d="M21.4 274.8c-15.8-1.6-18.2-3.6-18.2-16.2v-9.5c0-11.5 3.9-16.6 17.4-16.6 11.1 0 15.3 3.5 15.3 11.7v3.3h25.4v-3.3c0-27.3-17.4-39.1-41.3-39.1-24.2 0-43.2 11.9-43.2 44.5v9.5c0 30.8 18.2 42.6 43.6 44.5 15.8 1.2 18.2 3.6 18.2 16.2v11.5c0 11.5-4.3 16.6-17.8 16.6-13.5 0-17.4-4.7-17.4-14.6v-3.3H-16v3.3c0 27.3 17.4 39.5 42.1 39.5 24.6 0 43.6-12.3 43.6-45.3v-11.5c0-30.4-18.6-41.8-43.6-43.7zm230.4-93.9H226v144.6h27.2V320h.4l34.4-47.5h31.2l-36.2 47.5 37.8 51.7h-31.6l-36.2-50.9h-.4v50.9h-27.2V180.9zm-67.6 101.7c0-32.7-12.3-57.5-45.7-57.5-33 0-45.3 24.8-45.3 57.5 0 32.3 12.3 57.1 45.3 57.1 33.4-.1 45.7-24.8 45.7-57.1zm-45.3-33.9c16.6 0 18.2 19.4 18.2 33.5 0 14.2-1.6 34-18.2 34-16.2 0-18.2-19.8-18.2-34 0-14.2 2-33.5 18.2-33.5zm-66.5-19.7c-32 0-45.3 24.8-45.3 57.5 0 32.3 13.5 57.1 46.1 57.1 11.5 0 23.8-3.1 33.1-11.1v-21.8c-8.6 6.3-18.2 9.1-29.7 9.1-19.8 0-24.6-15.4-24.6-33.1h59.4v-12.3c0-32.7-13.9-45.4-39-45.4zm-16.2 38.3c.4-14.6 4.7-22.2 15.8-22.2 11.5 0 15 7.5 15 22.2h-30.8z"/></svg>